<svg xmlns="http://www.w3.org/2000/svg" viewBox="0 0 600 300">
  <!-- Vertical lines -->
  <line x1="100" y1="0" x2="100" y2="300" stroke="black" stroke-width="4"/>
  <line x1="200" y1="0" x2="200" y2="300" stroke="black" stroke-width="4"/>
  <line x1="300" y1="0" x2="300" y2="300" stroke="black" stroke-width="4"/>
  <line x1="400" y1="0" x2="400" y2="300" stroke="black" stroke-width="4"/>
  <line x1="500" y1="0" x2="500" y2="300" stroke="black" stroke-width="4"/>
  
  <!-- Horizontal lines -->
  <line x1="0" y1="100" x2="600" y2="100" stroke="black" stroke-width="4"/>
  <line x1="0" y1="200" x2="600" y2="200" stroke="black" stroke-width="4"/>
  
  <!-- Crosses in middle squares -->
  <!-- Square 1 -->
  <line x1="10" y1="110" x2="90" y2="190" stroke="red" stroke-width="4"/>
  <line x1="90" y1="110" x2="10" y2="190" stroke="red" stroke-width="4"/>
  <!-- Square 2 -->
  <line x1="110" y1="110" x2="190" y2="190" stroke="red" stroke-width="4"/>
  <line x1="190" y1="110" x2="110" y2="190" stroke="red" stroke-width="4"/>
  <!-- Square 3 -->
  <line x1="210" y1="110" x2="290" y2="190" stroke="red" stroke-width="4"/>
  <line x1="290" y1="110" x2="210" y2="190" stroke="red" stroke-width="4"/>
  <!-- Square 4 -->
  <line x1="310" y1="110" x2="390" y2="190" stroke="red" stroke-width="4"/>
  <line x1="390" y1="110" x2="310" y2="190" stroke="red" stroke-width="4"/>
  <!-- Square 5 -->
  <line x1="410" y1="110" x2="490" y2="190" stroke="red" stroke-width="4"/>
  <line x1="490" y1="110" x2="410" y2="190" stroke="red" stroke-width="4"/>
  <!-- Square 6 -->
  <line x1="510" y1="110" x2="590" y2="190" stroke="red" stroke-width="4"/>
  <line x1="590" y1="110" x2="510" y2="190" stroke="red" stroke-width="4"/>
</svg>